# xmcd CD database file
#
# Track frame offsets:
#	151
#	19702
#	40900
#	57533
#	73446
#	89688
#	106414
#	120285
#	137880
#	153032
#	172259
#	188485
#	204992
#	225351
#
# Disc length: 3212 seconds
#
# Revision: 0
# Processed by: cddbd v1.5.1PL0 Copyright (c) Steve Scherf et al.
# Submitted via: CDex 1.51
#
DISCID=bd0c8a0e
DTITLE=Najvecji hiti hrvaskega jadrana - Splitski hitovi 2
DYEAR=2005
DGENRE=Jazz
TTITLE0=Gibonni -  Projdi vilo
TTITLE1=Magazin - Idi in ne budi ljude
TTITLE2=Oliver Dragojevic - Nisan ja za te
TTITLE3=Doris Dragovic - Dodi
TTITLE4=Petar Graso - Prosjak ljubavi
TTITLE5=Colonia - Lady blue
TTITLE6=Daleka obala - 80 e
TTITLE7=Danijela - Nimam s kime docekat zime
TTITLE8=Dani Marsan - Prozor prema zalazu
TTITLE9=Jasna Zlokic - Teske so rici pale duso
TTITLE10=Mladen Grdovic and Bepo Matesic - Tu je moj dom
TTITLE11=Zrinka - Nikad niko nece znati
TTITLE12=Oliver Dragojevic and Toni Cetinski - Morski vuk
TTITLE13=Leo and Blansa - Lipo te je vidit
EXTD=YEAR: 2005
EXTT0=
EXTT1=
EXTT2=
EXTT3=
EXTT4=
EXTT5=
EXTT6=
EXTT7=
EXTT8=
EXTT9=
EXTT10=
EXTT11=
EXTT12=
EXTT13=
PLAYORDER=
